<svg width="199" height="50" viewBox="0 0 199 50" fill="none" xmlns="http://www.w3.org/2000/svg">
<g clip-path="url(#clip0_1_526)">
<path fill-rule="evenodd" clip-rule="evenodd" d="M70.6077 39.0679H68.8437V38.2304H73.3468V39.0679H71.5828V45.9084H70.6141V39.0679H70.6077ZM76.3875 38.2304H79.9733V39.0679H77.3561V41.51H79.8515V42.3475H77.3561V45.0774H80.1145V45.9148H76.3811V38.2368L76.3875 38.2304ZM85.0539 41.8489L82.9883 38.2304H84.1365L85.7467 41.0561L87.2926 38.2304H88.3639L86.2085 41.8617L88.505 45.9084H87.3568L85.5478 42.7055L83.8158 45.9084H82.7125L85.0539 41.8489ZM92.5399 39.0679H90.7759V38.2304H95.2791V39.0679H93.515V45.9084H92.5464V39.0679H92.5399ZM98.3197 38.2304H99.2883V45.9084H98.3197V38.2304ZM102.99 38.2304H103.958V45.071H106.486V45.9084H102.983V38.2304H102.99ZM109.481 38.2304H113.067V39.0679H110.45V41.51H112.945V42.3475H110.45V45.0774H113.208V45.9148H109.475V38.2368L109.481 38.2304ZM123.389 39.0679H121.625V38.2304H126.128V39.0679H124.364V45.9084H123.395V39.0679H123.389ZM129.168 38.2304H132.754V39.0679H130.137V41.51H132.632V42.3475H130.137V45.0774H132.895V45.9148H129.162V38.2368L129.168 38.2304ZM140.824 45.755C140.587 45.8253 140.356 45.8829 140.119 45.9276C139.881 45.9724 139.65 45.9852 139.426 45.9852C138.816 45.9852 138.29 45.8765 137.854 45.6655C137.418 45.4545 137.059 45.1669 136.776 44.8025C136.494 44.4381 136.289 44.0225 136.161 43.5494C136.026 43.0763 135.962 42.5777 135.962 42.0598C135.962 41.4589 136.045 40.9155 136.212 40.436C136.379 39.9565 136.61 39.5474 136.911 39.2085C137.213 38.8697 137.572 38.614 137.995 38.4286C138.412 38.2432 138.874 38.1537 139.374 38.1537C139.657 38.1537 139.92 38.1793 140.183 38.224C140.439 38.2688 140.657 38.3391 140.837 38.4286V39.3748C140.433 39.119 139.952 38.9912 139.394 38.9912C139.079 38.9912 138.771 39.0551 138.483 39.1766C138.194 39.3044 137.937 39.4834 137.713 39.7264C137.495 39.9693 137.315 40.2698 137.181 40.6214C137.046 40.9794 136.982 41.3886 136.982 41.8617C136.982 42.3603 137.033 42.8142 137.129 43.217C137.225 43.6197 137.379 43.965 137.585 44.2527C137.79 44.5403 138.047 44.7577 138.354 44.9175C138.662 45.0774 139.028 45.1541 139.445 45.1541C139.695 45.1541 139.939 45.1221 140.176 45.0582C140.414 44.9942 140.632 44.9047 140.831 44.7897V45.755H140.824ZM144.198 38.2304H145.167V41.51H147.861V38.2304H148.83V45.9084H147.861V42.3411H145.167V45.9084H144.198V38.2304ZM152.531 38.2304H153.737L156.643 44.5659H156.662V38.2304H157.592V45.9084H156.386L153.481 39.6177H153.461V45.9084H152.531V38.2304ZM161.98 42.1493C161.98 42.5393 162.012 42.9165 162.076 43.2809C162.141 43.6453 162.243 43.9714 162.384 44.2527C162.525 44.5339 162.711 44.7641 162.942 44.9367C163.173 45.1093 163.449 45.1924 163.77 45.1924C164.02 45.1924 164.257 45.1349 164.488 45.0262C164.719 44.9175 164.918 44.7321 165.091 44.4828C165.265 44.2271 165.399 43.901 165.502 43.4919C165.598 43.0827 165.649 42.5841 165.649 41.9895C165.649 41.5995 165.617 41.2223 165.553 40.8579C165.489 40.4935 165.386 40.1675 165.245 39.8862C165.104 39.6049 164.918 39.3748 164.687 39.2021C164.456 39.0295 164.18 38.9464 163.86 38.9464C163.603 38.9464 163.359 39.004 163.135 39.1126C162.91 39.2213 162.711 39.4067 162.538 39.6561C162.365 39.9118 162.23 40.2378 162.128 40.647C162.025 41.0561 161.98 41.5548 161.98 42.1493ZM160.967 42.1493C160.967 40.8196 161.223 39.8223 161.73 39.1574C162.237 38.4925 162.949 38.1537 163.86 38.1537C164.289 38.1537 164.674 38.2432 165.021 38.4158C165.367 38.5948 165.662 38.8441 165.906 39.183C166.15 39.5154 166.336 39.9182 166.471 40.3913C166.605 40.8643 166.669 41.395 166.669 41.9895C166.669 43.3193 166.413 44.3166 165.906 44.9815C165.399 45.6463 164.687 45.9852 163.776 45.9852C163.347 45.9852 162.962 45.8957 162.615 45.723C162.269 45.544 161.974 45.2947 161.73 44.9559C161.486 44.6234 161.3 44.2207 161.165 43.7476C161.031 43.2745 160.967 42.7439 160.967 42.1493ZM170.037 38.2304H171.006V45.071H173.533V45.9084H170.031V38.2304H170.037ZM177.222 42.1493C177.222 42.5393 177.254 42.9165 177.318 43.2809C177.382 43.6453 177.485 43.9714 177.626 44.2527C177.767 44.5339 177.953 44.7641 178.184 44.9367C178.415 45.1093 178.691 45.1924 179.011 45.1924C179.262 45.1924 179.499 45.1349 179.73 45.0262C179.961 44.9175 180.16 44.7321 180.333 44.4828C180.506 44.2271 180.641 43.901 180.743 43.4919C180.84 43.0827 180.891 42.5841 180.891 41.9895C180.891 41.5995 180.859 41.2223 180.795 40.8579C180.731 40.4935 180.628 40.1675 180.487 39.8862C180.346 39.6049 180.16 39.3748 179.929 39.2021C179.698 39.0295 179.422 38.9464 179.101 38.9464C178.845 38.9464 178.601 39.004 178.376 39.1126C178.152 39.2213 177.953 39.4067 177.78 39.6561C177.607 39.9118 177.472 40.2378 177.369 40.647C177.267 41.0561 177.222 41.5548 177.222 42.1493ZM176.208 42.1493C176.208 40.8196 176.465 39.8223 176.972 39.1574C177.478 38.4925 178.19 38.1537 179.101 38.1537C179.531 38.1537 179.916 38.2432 180.262 38.4158C180.609 38.5948 180.904 38.8441 181.148 39.183C181.391 39.5154 181.577 39.9182 181.712 40.3913C181.847 40.8643 181.911 41.395 181.911 41.9895C181.911 43.3193 181.654 44.3166 181.148 44.9815C180.641 45.6463 179.929 45.9852 179.018 45.9852C178.595 45.9852 178.203 45.8957 177.857 45.723C177.51 45.544 177.215 45.2947 176.972 44.9559C176.728 44.6234 176.542 44.2207 176.407 43.7476C176.272 43.2745 176.208 42.7439 176.208 42.1493ZM190.34 45.5952C190.231 45.6399 190.096 45.6847 189.949 45.7294C189.801 45.7742 189.641 45.8126 189.474 45.8573C189.307 45.8957 189.134 45.9276 188.954 45.9532C188.775 45.9788 188.602 45.9916 188.428 45.9916C187.819 45.9916 187.293 45.8829 186.857 45.6719C186.421 45.4609 186.061 45.1732 185.779 44.8088C185.497 44.4444 185.292 44.0289 185.163 43.5558C185.029 43.0827 184.964 42.5841 184.964 42.0662C184.964 41.4653 185.048 40.9219 185.215 40.4424C185.381 39.9629 185.612 39.5538 185.914 39.2149C186.215 38.8761 186.575 38.6204 186.998 38.435C187.415 38.2496 187.877 38.1601 188.377 38.1601C188.711 38.1601 189.025 38.1857 189.333 38.2368C189.641 38.2879 189.923 38.3774 190.186 38.4989V39.4643C189.891 39.3172 189.589 39.2021 189.275 39.119C188.961 39.0359 188.666 38.9912 188.383 38.9912C188.069 38.9912 187.761 39.0551 187.473 39.1766C187.184 39.3044 186.927 39.4834 186.703 39.7264C186.485 39.9693 186.305 40.2698 186.17 40.6214C186.036 40.9794 185.972 41.3886 185.972 41.8617C185.972 42.3603 186.023 42.8142 186.119 43.217C186.215 43.6197 186.369 43.965 186.575 44.2527C186.78 44.5403 187.036 44.7577 187.344 44.9175C187.652 45.0774 188.018 45.1541 188.435 45.1541C188.589 45.1541 188.756 45.1349 188.935 45.0965C189.115 45.0582 189.269 45.007 189.391 44.9431V42.5201H188.101V41.6826H190.321V45.5888L190.34 45.5952ZM195.562 42.6927L193.252 38.2368H194.356L196.056 41.6379L197.768 38.2368H198.84L196.53 42.6927V45.9148H195.562V42.6927Z" fill="white"/>
<path fill-rule="evenodd" clip-rule="evenodd" d="M27.5709 7.45454L12.1177 33.9026C11.5403 34.8935 11.0913 36.1018 11.0528 37.3037C10.809 45.7297 31.4839 48.5362 50.7989 40.481C27.1026 57.1349 -7.42824 50.3007 1.41777 32.6303L18.6415 2.58943C22.1697 -3.49675 30.5089 2.41043 27.5773 7.45454H27.5709ZM42.8702 30.1179C40.5032 28.6731 37.3214 29.3955 35.9294 31.7865L34.8132 33.7044C33.4212 36.0954 34.1204 39.1768 36.4875 40.6217C38.8546 42.0665 42.0363 41.3377 43.4283 38.9531L44.5445 37.0352C45.9365 34.6442 45.2373 31.5627 42.8702 30.1179ZM34.4219 15.7783C32.0549 14.3335 28.9309 15.0878 27.4811 17.4469L17.9295 33.0267C16.4797 35.3857 17.2367 38.4992 19.6037 39.944C21.9708 41.3888 25.0948 40.6344 26.5445 38.2754L36.0962 22.6956C37.5395 20.3365 36.789 17.2231 34.4219 15.7783Z" fill="white"/>
<path fill-rule="evenodd" clip-rule="evenodd" d="M79.5051 18.949V21.5318C78.19 22.024 76.9007 22.267 75.6434 22.267C73.565 22.267 71.9164 21.6532 70.6783 20.4322C69.4467 19.2047 68.8308 17.5681 68.8308 15.5095C68.8308 13.451 69.4338 11.7568 70.6334 10.4846C71.833 9.21236 73.411 8.57306 75.3739 8.57306C76.0539 8.57306 76.6697 8.63699 77.2086 8.76485C77.7474 8.8991 78.421 9.13565 79.2228 9.48726V12.2746C77.895 11.4307 76.6633 11.0088 75.5343 11.0088C74.4053 11.0088 73.3789 11.418 72.622 12.2491C71.865 13.0802 71.4866 14.135 71.4866 15.4136C71.4866 16.7689 71.8971 17.8366 72.7182 18.6357C73.5393 19.4284 74.6491 19.8248 76.0347 19.8248C77.0418 19.8248 78.2029 19.5307 79.5051 18.949ZM85.9135 3.27322C86.3432 3.27322 86.7153 3.42026 87.0232 3.72074C87.3311 4.01482 87.4851 4.37922 87.4851 4.80755C87.4851 5.23589 87.3247 5.5939 87.0232 5.90076C86.7153 6.20763 86.3432 6.36106 85.9135 6.36106C85.5093 6.36106 85.1565 6.20124 84.8486 5.89437C84.5407 5.58111 84.3867 5.21671 84.3867 4.80755C84.3867 4.3984 84.5407 4.05318 84.8486 3.73992C85.1565 3.43305 85.5093 3.27322 85.9135 3.27322ZM84.6177 8.82878H87.2413V22.0368H84.6177V8.82878ZM91.2377 10.9193L96.1643 6.09895V8.82878H100.36V11.1814H96.1643V17.6576C96.1643 19.1727 96.793 19.9271 98.0503 19.9271C98.9868 19.9271 99.9811 19.6138 101.033 18.9809V21.4231C100.026 21.9857 98.9227 22.2734 97.7359 22.2734C96.5492 22.2734 95.5357 21.9281 94.7402 21.2249C94.4901 21.0139 94.2848 20.7774 94.118 20.5153C93.9576 20.2532 93.8165 19.9079 93.7074 19.4796C93.5984 19.0513 93.5471 18.2457 93.5471 17.0438V11.1878H91.2377V10.9257V10.9193ZM116.288 15.6566H106.96C107.031 16.9224 107.454 17.9261 108.237 18.6677C109.02 19.4157 110.027 19.7929 111.265 19.7929C112.997 19.7929 114.588 19.2558 116.05 18.1882V20.739C115.242 21.276 114.44 21.6596 113.651 21.8898C112.862 22.1199 111.932 22.235 110.861 22.235C109.398 22.235 108.218 21.9281 107.32 21.3272C106.415 20.7262 105.69 19.9143 105.151 18.8978C104.606 17.8813 104.337 16.6986 104.337 15.3561C104.337 13.3487 104.908 11.712 106.056 10.4526C107.198 9.19318 108.68 8.56666 110.508 8.56666C112.336 8.56666 113.67 9.1804 114.71 10.4015C115.755 11.6289 116.281 13.2656 116.281 15.3241V15.6502L116.288 15.6566ZM107.025 14.0903H113.696C113.632 13.0482 113.317 12.2427 112.759 11.6801C112.201 11.1111 111.451 10.8298 110.514 10.8298C109.578 10.8298 108.801 11.1111 108.205 11.6801C107.602 12.2427 107.211 13.0482 107.031 14.0903H107.025ZM128.861 8.82239H131.702L125.852 22.2606H124.973L118.982 8.82239H121.849L125.422 16.9479L128.867 8.82239H128.861ZM146.45 15.6566H137.123C137.193 16.9224 137.617 17.9261 138.399 18.6677C139.182 19.4157 140.189 19.7929 141.427 19.7929C143.159 19.7929 144.75 19.2558 146.213 18.1882V20.739C145.404 21.276 144.602 21.6596 143.813 21.8898C143.024 22.1199 142.094 22.235 141.023 22.235C139.56 22.235 138.38 21.9281 137.482 21.3272C136.578 20.7262 135.853 19.9143 135.314 18.8978C134.769 17.8813 134.499 16.6986 134.499 15.3561C134.499 13.3487 135.07 11.712 136.218 10.4526C137.36 9.19318 138.842 8.56666 140.67 8.56666C142.498 8.56666 143.833 9.1804 144.872 10.4015C145.918 11.6289 146.444 13.2656 146.444 15.3241V15.6502L146.45 15.6566ZM137.187 14.0903H143.858C143.794 13.0482 143.48 12.2427 142.922 11.6801C142.364 11.1111 141.613 10.8298 140.677 10.8298C139.74 10.8298 138.964 11.1111 138.367 11.6801C137.764 12.2427 137.373 13.0482 137.193 14.0903H137.187Z" fill="white"/>
<path d="M199 29.945H68.8372V30.4437H199V29.945Z" fill="white"/>
</g>
<defs>
<clipPath id="clip0_1_526">
<rect width="199" height="50" fill="white"/>
</clipPath>
</defs>
</svg>
