<?xml version="1.0" encoding="UTF-8"?><svg id="Layer_1" xmlns="http://www.w3.org/2000/svg" viewBox="0 0 423.51 453.64"><defs><style>.cls-1{fill:#c2ff58;}</style></defs><path class="cls-1" d="M218.64,406.46v34.08c-14.68-1.41-29.05-2.14-43.21-4.28-30.62-4.61-60.31-12.74-86.75-29.43-44.84-28.29-72.09-69.03-77.25-121.71C3.34,202.29,27.61,129.66,87.22,70.33,122.66,35.06,166.33,17.38,215.88,13.81c39.93-2.88,78.45,2.74,113.9,22.23,41.59,22.85,71.67,55.83,79.95,103.71,10.66,61.66-.06,119.17-40.87,168.72-14.01,17.01-31.12,30.41-51.99,38.18-28.69,10.67-50.71-2.16-56.26-32.18-3.77-20.36-2.35-40.67,.63-60.88,2.24-15.19,5.55-30.23,8.35-45.34,.2-1.08,.15-2.2,.31-4.95-2.19,3.04-3.48,4.84-4.78,6.63-23.74,32.66-47.11,65.59-71.45,97.8-7.21,9.54-16.58,17.71-25.93,25.31-19.24,15.63-41.73,11.07-54.74-10.3-6.57-10.78-9.48-22.78-10.25-35.11-2.16-34.74,1.27-68.82,14.68-101.29,8.69-21.06,21.15-39.55,41.59-50.84,24.34-13.44,49.46-11.32,73.76-.07,11.38,5.26,21.53,13.17,33.1,20.42,9.38-13.86,19.42-28.71,29.59-43.74,9.68,5.07,18.98,9.95,27.31,14.32-6.44,21.78-13.54,42.69-18.72,64.07-7.98,32.88-15.14,66.03-14.56,100.17,.11,6.42,1.42,13.01,3.33,19.17,2.38,7.65,6.29,9.39,14.21,8.21,13.43-1.99,22.9-10.51,31.69-19.76,16.93-17.82,27.23-39.45,34.34-62.66,8.59-28.07,12.36-56.68,7.93-85.98-4.43-29.3-19.79-52.12-42.52-70.32-35.09-28.09-75.66-37.26-119.65-33.65-38.35,3.15-72.77,16.41-101.01,42.96-30.03,28.23-50.68,62.61-62.89,101.98-6.92,22.32-10.9,45.15-11.6,68.57-2.01,66.92,36.89,110.1,89.42,132.21,24.24,10.2,49.87,13.99,75.98,15.02,3.07,.12,6.15,.02,9.9,.02Zm27.98-222.08c-10.45-9.65-20.95-17.35-33.26-22.24-21.65-8.61-41.27-3.53-54.16,15.9-6.47,9.75-11.32,21.05-14.62,32.32-6.76,23.07-12.18,46.62-8.72,71,.93,6.57,2.56,13.26,5.22,19.29,2.87,6.51,7.54,7.15,13.01,2.7,3.72-3.02,7.38-6.26,10.41-9.95,11.84-14.42,23.83-28.74,34.99-43.67,15.98-21.4,31.29-43.32,47.13-65.36Z"/></svg>