<svg width="420" height="237" viewBox="0 0 420 237" fill="none" xmlns="http://www.w3.org/2000/svg">
<g clip-path="url(#clip0_1_1097)">
<path d="M57.9124 53.5334C39.2927 53.5334 25.5796 61.5154 16.7797 73.5918V12.7964H0V163.248H16.7797V128.246L24.7596 155.466C30.2862 160.174 41.5393 166.315 57.9124 166.315C90.6519 166.315 111.938 141.342 111.938 110.028C111.938 78.7131 90.8586 53.5334 57.9124 53.5334ZM55.6591 150.965C31.3062 150.965 16.1664 132.747 16.1664 110.028C16.1664 87.3086 31.3062 68.8839 55.6591 68.8839C80.0121 68.8839 94.7452 87.3086 94.7452 110.028C94.7452 132.747 80.4187 150.965 55.6591 150.965Z" fill="#BB9BFF"/>
<path d="M420 72.1583V56.8077H384.434C378.907 36.3292 364.794 21.8055 345.948 11.4496C328.261 1.72043 309.035 -1.08028 289.115 0.353417C264.389 2.13387 242.603 10.9561 224.916 28.5672C214.65 38.7898 206.49 49.8059 200.363 61.5489C200.283 61.4956 200.203 61.4356 200.117 61.3822C192.244 56.3343 182.477 53.5335 171.071 53.5335C140.991 53.5335 118.891 77.893 118.891 110.028C118.891 142.163 140.584 166.315 172.711 166.315C180.17 166.315 187.724 165.115 194.717 162.574C201.31 176.025 211.79 187.147 225.643 195.89C238.836 204.218 253.656 208.273 268.929 210.58C275.996 211.647 283.162 212.014 290.489 212.714V195.703C288.615 195.703 287.082 195.756 285.549 195.696C272.522 195.183 259.736 193.296 247.636 188.201C231.063 181.219 217.21 170.03 209.517 154.306C214.03 150.631 217.897 146.064 220.79 140.529L207.897 129.679C206.757 132.327 205.443 134.714 203.963 136.861C200.223 142.283 195.397 146.144 189.477 148.511C184.67 150.431 179.15 151.378 172.904 151.378C153.464 151.378 138.318 139.302 136.271 115.556H222.016C222.223 113.102 222.423 110.441 222.423 108.187C222.423 95.3308 219.41 84.1146 213.797 75.2324C219.99 61.1021 228.71 48.5056 240.183 37.7162C254.276 24.4662 271.449 17.8445 290.589 16.2708C312.535 14.4703 332.788 19.0448 350.294 33.0684C358.514 39.65 364.788 47.452 368.467 56.8077H353.894V72.1583H372.007C373.347 85.3883 371.454 98.3516 367.554 111.081C364.008 122.664 358.868 133.46 350.421 142.356C346.034 146.971 341.308 151.225 334.608 152.219C330.655 152.805 328.701 151.938 327.515 148.117C326.561 145.043 325.908 141.756 325.855 138.548C325.561 121.511 329.135 104.96 333.121 88.5491C335.708 77.8797 339.255 67.4371 342.461 56.5676C338.301 54.3871 333.661 51.9531 328.828 49.4192C323.755 56.9211 318.742 64.3296 314.062 71.2514C308.288 67.6304 303.222 63.6895 297.542 61.0621C285.415 55.4474 272.882 54.3871 260.736 61.0955C250.529 66.7302 244.316 75.9592 239.983 86.4685C233.29 102.679 231.576 119.69 232.656 137.028C233.043 143.183 234.496 149.171 237.77 154.552C244.263 165.215 255.483 167.496 265.082 159.694C269.749 155.899 274.422 151.818 278.022 147.057C290.169 130.98 301.829 114.542 313.675 98.2449C314.328 97.3513 314.968 96.4511 316.062 94.9307C315.982 96.3044 316.008 96.8645 315.908 97.4047C314.508 104.947 312.855 112.448 311.742 120.03C310.255 130.12 309.548 140.256 311.428 150.418C314.202 165.402 325.188 171.803 339.501 166.482C349.914 162.608 358.454 155.913 365.441 147.424C368.061 144.243 370.427 140.996 372.561 137.688C373.327 158.28 384.701 165.909 404.847 165.909C407.914 165.909 414.667 165.295 417.74 164.068V149.124C414.873 149.738 410.167 150.351 407.507 150.351C395.84 150.351 389.294 148.511 389.294 133.36V72.1583H419.987H420ZM187.49 102.046H136.491C139.358 80.1403 153.884 68.4773 171.077 68.4773C180.237 68.4773 187.997 71.1847 193.704 76.1459C200.363 81.9341 204.23 90.803 204.23 102.046H187.497H187.49ZM280.942 118.117C275.376 125.572 269.389 132.72 263.482 139.915C261.969 141.756 260.143 143.376 258.289 144.883C255.563 147.104 253.229 146.784 251.796 143.536C250.469 140.522 249.656 137.181 249.189 133.907C247.456 121.737 250.163 109.981 253.536 98.4649C255.183 92.8435 257.603 87.1954 260.829 82.3342C267.262 72.6384 277.049 70.0977 287.855 74.3988C294.002 76.8461 299.235 80.6871 304.455 85.5016C296.549 96.5044 288.915 107.441 280.936 118.123L280.942 118.117Z" fill="#BB9BFF"/>
<path d="M13.6331 190.129C14.8264 190.809 15.7597 191.796 16.4331 193.076C17.1064 194.356 17.4397 195.877 17.4397 197.63C17.4397 199.384 17.1064 200.785 16.4331 202.072C15.7597 203.365 14.8264 204.366 13.6331 205.079C12.4398 205.793 11.0865 206.153 9.56651 206.153C8.3332 206.153 7.25988 205.919 6.34656 205.452C5.43325 204.986 4.69992 204.352 4.13326 203.552L3.71327 205.959H0.65332V183.18H4.1666V191.769C5.48658 189.989 7.29322 189.102 9.56651 189.102C11.0865 189.102 12.4398 189.442 13.6331 190.129ZM12.5131 201.652C13.4131 200.618 13.8664 199.284 13.8664 197.63C13.8664 195.977 13.4131 194.676 12.5131 193.643C11.6131 192.616 10.4332 192.096 8.97985 192.096C7.52654 192.096 6.35323 192.603 5.46658 193.623C4.57992 194.643 4.13326 195.963 4.13326 197.59C4.13326 199.218 4.57992 200.585 5.46658 201.625C6.35323 202.665 7.52654 203.185 8.97985 203.185C10.4332 203.185 11.6065 202.672 12.5131 201.638V201.652Z" fill="#BB9BFF"/>
<path d="M23.233 183.227C23.6463 183.627 23.853 184.134 23.853 184.74C23.853 185.347 23.6463 185.854 23.233 186.254C22.8196 186.654 22.313 186.854 21.7063 186.854C21.0997 186.854 20.5863 186.654 20.1797 186.254C19.7664 185.854 19.5597 185.347 19.5597 184.74C19.5597 184.134 19.7664 183.627 20.1797 183.227C20.593 182.827 21.0997 182.626 21.7063 182.626C22.313 182.626 22.8263 182.827 23.233 183.227ZM19.9464 189.295H23.4596V205.959H19.9464V189.295Z" fill="#BB9BFF"/>
<path d="M30.0129 205.099C28.7196 204.392 27.7262 203.398 27.0196 202.105C26.3129 200.811 25.9596 199.324 25.9596 197.63C25.9596 195.936 26.3129 194.476 27.0196 193.189C27.7262 191.895 28.7196 190.895 30.0129 190.182C31.3062 189.468 32.7862 189.108 34.4528 189.108C36.1194 189.108 37.6061 189.468 38.8927 190.182C40.1794 190.895 41.1794 191.902 41.886 193.189C42.5927 194.483 42.946 195.963 42.946 197.63C42.946 199.297 42.5927 200.811 41.886 202.105C41.1794 203.398 40.186 204.392 38.8927 205.099C37.5994 205.805 36.1194 206.159 34.4528 206.159C32.7862 206.159 31.2995 205.805 30.0129 205.099ZM38.0194 201.618C38.9194 200.591 39.3727 199.257 39.3727 197.63C39.3727 196.003 38.9194 194.676 38.0194 193.642C37.1194 192.615 35.9328 192.095 34.4595 192.095C32.9861 192.095 31.7995 192.609 30.9128 193.642C30.0262 194.676 29.5795 196.003 29.5795 197.63C29.5795 199.257 30.0262 200.584 30.9128 201.618C31.7995 202.651 32.9861 203.165 34.4595 203.165C35.9328 203.165 37.1194 202.651 38.0194 201.618Z" fill="#BB9BFF"/>
<path d="M45.8593 193.156C46.5459 191.862 47.4993 190.869 48.7192 190.162C49.9459 189.455 51.3459 189.102 52.9325 189.102C54.5192 189.102 55.9525 189.428 57.1791 190.075C58.4058 190.729 59.3724 191.649 60.0724 192.843C60.7791 194.036 61.139 195.437 61.1657 197.037C61.1657 197.47 61.1324 197.917 61.0657 198.371H48.5059V198.564C48.5926 200.018 49.0459 201.165 49.8726 202.012C50.6992 202.858 51.7925 203.278 53.1592 203.278C54.2458 203.278 55.1525 203.025 55.8925 202.512C56.6325 202.005 57.1191 201.278 57.3591 200.344H60.8724C60.5657 202.038 59.7524 203.425 58.4191 204.512C57.0858 205.599 55.4191 206.139 53.4258 206.139C51.6925 206.139 50.1792 205.786 48.8859 205.079C47.5926 204.372 46.5993 203.379 45.8926 202.098C45.186 200.818 44.8326 199.331 44.8326 197.637C44.8326 195.943 45.1726 194.423 45.8593 193.129V193.156ZM57.5858 195.81C57.4324 194.596 56.9524 193.643 56.1391 192.963C55.3258 192.282 54.2992 191.936 53.0658 191.936C51.9125 191.936 50.9259 192.289 50.0859 192.996C49.2526 193.703 48.7659 194.636 48.6392 195.81H57.5858Z" fill="#BB9BFF"/>
<path d="M76.5254 204.512C75.1788 205.605 73.4588 206.152 71.3522 206.152C69.7055 206.152 68.2522 205.799 66.9922 205.092C65.7323 204.385 64.7656 203.385 64.079 202.085C63.399 200.784 63.0523 199.284 63.0523 197.59C63.0523 195.896 63.399 194.409 64.0923 193.129C64.7856 191.849 65.7656 190.855 67.0389 190.148C68.3056 189.441 69.7789 189.088 71.4455 189.088C73.5255 189.088 75.2321 189.635 76.5521 190.735C77.8721 191.829 78.6987 193.322 79.0254 195.209H75.4121C75.1721 194.256 74.6988 193.496 73.9788 192.929C73.2655 192.362 72.3855 192.082 71.3455 192.082C69.9322 192.082 68.7989 192.589 67.9456 193.609C67.0856 194.629 66.6589 195.95 66.6589 197.577C66.6589 199.204 67.0856 200.564 67.9456 201.598C68.8055 202.631 69.9322 203.145 71.3455 203.145C72.4322 203.145 73.3321 202.858 74.0455 202.285C74.7588 201.711 75.2254 200.931 75.4454 199.957H79.0254C78.6987 201.891 77.8654 203.405 76.5188 204.498L76.5254 204.512Z" fill="#BB9BFF"/>
<path d="M84.672 205.099C83.3787 204.392 82.3853 203.398 81.6787 202.105C80.972 200.811 80.6187 199.324 80.6187 197.63C80.6187 195.936 80.972 194.476 81.6787 193.189C82.3853 191.895 83.3787 190.895 84.672 190.182C85.9653 189.468 87.4453 189.108 89.1119 189.108C90.7786 189.108 92.2652 189.468 93.5518 190.182C94.8385 190.895 95.8385 191.902 96.5451 193.189C97.2518 194.483 97.6051 195.963 97.6051 197.63C97.6051 199.297 97.2518 200.811 96.5451 202.105C95.8385 203.398 94.8452 204.392 93.5518 205.099C92.2585 205.805 90.7786 206.159 89.1119 206.159C87.4453 206.159 85.9586 205.805 84.672 205.099ZM92.6785 201.618C93.5785 200.591 94.0318 199.257 94.0318 197.63C94.0318 196.003 93.5785 194.676 92.6785 193.642C91.7785 192.615 90.5919 192.095 89.1186 192.095C87.6453 192.095 86.4586 192.609 85.572 193.642C84.6853 194.676 84.2387 196.003 84.2387 197.63C84.2387 199.257 84.6853 200.584 85.572 201.618C86.4586 202.651 87.6453 203.165 89.1186 203.165C90.5919 203.165 91.7785 202.651 92.6785 201.618Z" fill="#BB9BFF"/>
<path d="M113.732 190.922C114.978 192.136 115.605 194.09 115.605 196.784V205.959H112.058V196.977C112.058 195.397 111.725 194.19 111.052 193.363C110.378 192.536 109.392 192.129 108.092 192.129C106.705 192.129 105.612 192.609 104.825 193.576C104.032 194.543 103.638 195.87 103.638 197.564V205.959H100.125V189.295H103.185L103.578 191.476C104.838 189.895 106.612 189.102 108.912 189.102C110.885 189.102 112.498 189.708 113.745 190.922H113.732Z" fill="#BB9BFF"/>
<path d="M121.891 205.099C120.598 204.392 119.605 203.398 118.898 202.105C118.191 200.811 117.838 199.324 117.838 197.63C117.838 195.936 118.191 194.476 118.898 193.189C119.605 191.895 120.598 190.895 121.891 190.182C123.185 189.468 124.665 189.108 126.331 189.108C127.998 189.108 129.485 189.468 130.771 190.182C132.058 190.895 133.058 191.902 133.765 193.189C134.471 194.483 134.825 195.963 134.825 197.63C134.825 199.297 134.471 200.811 133.765 202.105C133.058 203.398 132.065 204.392 130.771 205.099C129.478 205.805 127.998 206.159 126.331 206.159C124.665 206.159 123.178 205.805 121.891 205.099ZM129.898 201.618C130.798 200.591 131.251 199.257 131.251 197.63C131.251 196.003 130.798 194.676 129.898 193.642C128.998 192.615 127.811 192.095 126.338 192.095C124.865 192.095 123.678 192.609 122.791 193.642C121.905 194.676 121.458 196.003 121.458 197.63C121.458 199.257 121.905 200.584 122.791 201.618C123.678 202.651 124.865 203.165 126.338 203.165C127.811 203.165 128.998 202.651 129.898 201.618Z" fill="#BB9BFF"/>
<path d="M161.017 190.875C162.164 192.056 162.744 193.949 162.744 196.557V205.959H159.231V196.583C159.231 195.13 158.938 194.023 158.351 193.263C157.764 192.502 156.898 192.122 155.751 192.122C154.538 192.122 153.578 192.549 152.871 193.409C152.164 194.27 151.811 195.443 151.811 196.944V205.959H148.264V196.583C148.264 195.11 147.964 193.996 147.371 193.249C146.771 192.502 145.904 192.129 144.751 192.129C143.598 192.129 142.611 192.576 141.904 193.463C141.198 194.35 140.844 195.543 140.844 197.044V205.959H137.331V189.295H140.391L140.784 191.476C141.978 189.915 143.604 189.122 145.664 189.102C146.838 189.102 147.864 189.348 148.758 189.848C149.644 190.349 150.331 191.109 150.804 192.129C151.391 191.175 152.158 190.429 153.118 189.902C154.071 189.368 155.224 189.102 156.564 189.102C158.384 189.102 159.871 189.695 161.024 190.875H161.017Z" fill="#BB9BFF"/>
<path d="M167.171 189.295L171.824 202.152L176.344 189.295H180.084L172.537 208.56C172.144 209.56 171.791 210.32 171.464 210.854C171.137 211.387 170.737 211.787 170.257 212.061C169.777 212.334 169.137 212.467 168.337 212.467H164.564V209.373H167.037C167.711 209.373 168.177 209.267 168.437 209.067C168.697 208.86 168.971 208.4 169.251 207.686L169.931 206.093L163.424 189.302H167.164L167.171 189.295Z" fill="#BB9BFF"/>
<path d="M16.5931 233.746V236.807H14.7398C13.6531 236.807 12.8731 236.58 12.3998 236.127C11.9198 235.673 11.6865 235.007 11.6865 234.14C10.4265 236.047 8.5932 237 6.18657 237C4.31993 237 2.82662 236.567 1.69331 235.7C0.566658 234.833 0 233.64 0 232.119C0 230.405 0.606657 229.085 1.81997 228.165C3.03329 227.245 4.79992 226.784 7.12655 226.784H11.3265V225.778C11.3265 224.844 10.9998 224.11 10.3532 223.584C9.69985 223.05 8.79986 222.783 7.65321 222.783C6.63323 222.783 5.79324 223.003 5.13325 223.45C4.47326 223.897 4.07327 224.484 3.9466 225.224H0.486659C0.65999 223.55 1.39998 222.257 2.69996 221.336C3.99994 220.416 5.70658 219.956 7.80654 219.956C10.0398 219.956 11.7665 220.476 12.9798 221.516C14.1931 222.557 14.7998 224.057 14.7998 226.011V232.586C14.7998 233.366 15.1664 233.76 15.9064 233.76H16.5931V233.746ZM11.3198 229.385H6.95989C5.87324 229.385 5.03992 229.598 4.45326 230.019C3.86661 230.439 3.57328 231.066 3.57328 231.892C3.57328 232.606 3.84661 233.186 4.39993 233.62C4.95325 234.053 5.70658 234.273 6.65989 234.273C8.1132 234.273 9.24652 233.88 10.0598 233.099C10.8732 232.319 11.2932 231.279 11.3132 229.979V229.392L11.3198 229.385Z" fill="#BB9BFF"/>
<path d="M19.2597 223.237H16.3664V220.143H19.2597V215.488H22.8063V220.143H26.8062V223.237H22.8063V231.926C22.8063 232.579 22.933 233.039 23.1996 233.306C23.4596 233.58 23.9063 233.713 24.5329 233.713H27.1996V236.807H23.8129C22.2263 236.807 21.073 236.44 20.3463 235.7C19.6197 234.96 19.253 233.826 19.253 232.279V223.23L19.2597 223.237Z" fill="#BB9BFF"/>
<path d="M37.8394 223.237H34.9461V220.143H37.8394V215.488H41.386V220.143H45.3859V223.237H41.386V231.926C41.386 232.579 41.5127 233.039 41.7793 233.306C42.0393 233.58 42.486 233.713 43.1126 233.713H45.7793V236.807H42.3927C40.806 236.807 39.6527 236.44 38.926 235.7C38.1994 234.96 37.8327 233.826 37.8327 232.279V223.23L37.8394 223.237Z" fill="#BB9BFF"/>
<path d="M47.3859 224.004C48.0726 222.71 49.0259 221.716 50.2459 221.009C51.4725 220.303 52.8725 219.949 54.4591 219.949C56.0458 219.949 57.4791 220.276 58.7057 220.923C59.9324 221.576 60.899 222.497 61.599 223.69C62.3057 224.884 62.6657 226.284 62.6923 227.885C62.6923 228.318 62.659 228.765 62.5923 229.218H50.0325V229.412C50.1192 230.865 50.5725 232.012 51.3992 232.859C52.2258 233.706 53.3191 234.126 54.6858 234.126C55.7724 234.126 56.6791 233.873 57.4191 233.359C58.1591 232.852 58.6457 232.126 58.8857 231.192H62.399C62.0923 232.886 61.279 234.273 59.9457 235.36C58.6124 236.447 56.9458 236.987 54.9524 236.987C53.2191 236.987 51.7058 236.633 50.4125 235.927C49.1192 235.22 48.1259 234.226 47.4192 232.946C46.7126 231.666 46.3593 230.178 46.3593 228.485C46.3593 226.791 46.6992 225.271 47.3859 223.977V224.004ZM59.1124 226.658C58.9591 225.444 58.4791 224.49 57.6657 223.81C56.8524 223.13 55.8258 222.783 54.5925 222.783C53.4391 222.783 52.4525 223.137 51.6125 223.844C50.7792 224.55 50.2925 225.484 50.1659 226.658H59.1124Z" fill="#BB9BFF"/>
<path d="M69.2389 228.278L63.3523 220.143H67.4522L71.4522 225.771L75.5188 220.143H79.3587L73.4388 228.278L79.7187 236.807H75.6188L71.2255 230.752L66.7989 236.807H62.9923L69.2389 228.278Z" fill="#BB9BFF"/>
<path d="M81.212 215.488H84.7253V220.143H88.7586V223.237H84.7253V231.926C84.7253 232.579 84.8586 233.039 85.1186 233.306C85.3786 233.58 85.8253 233.713 86.4519 233.713H89.1186V236.807H85.732C84.1453 236.807 82.9987 236.44 82.2854 235.7C81.572 234.96 81.212 233.826 81.212 232.279V215.488Z" fill="#BB9BFF"/>
<path d="M93.9985 214.074C94.4119 214.474 94.6185 214.981 94.6185 215.588C94.6185 216.195 94.4119 216.702 93.9985 217.102C93.5852 217.502 93.0785 217.702 92.4719 217.702C91.8652 217.702 91.3519 217.502 90.9452 217.102C90.5319 216.702 90.3253 216.195 90.3253 215.588C90.3253 214.981 90.5319 214.474 90.9452 214.074C91.3586 213.674 91.8652 213.474 92.4719 213.474C93.0785 213.474 93.5919 213.674 93.9985 214.074ZM90.7119 220.142H94.2252V236.807H90.7119V220.142Z" fill="#BB9BFF"/>
<path d="M97.3451 214.028H100.858V236.807H97.3451V214.028Z" fill="#BB9BFF"/>
<path d="M104.392 224.004C105.078 222.71 106.032 221.716 107.252 221.009C108.478 220.303 109.878 219.949 111.465 219.949C113.052 219.949 114.485 220.276 115.712 220.923C116.938 221.576 117.905 222.497 118.605 223.69C119.311 224.884 119.671 226.284 119.698 227.885C119.698 228.318 119.665 228.765 119.598 229.218H107.038V229.412C107.125 230.865 107.578 232.012 108.405 232.859C109.232 233.706 110.325 234.126 111.692 234.126C112.778 234.126 113.685 233.873 114.425 233.359C115.165 232.852 115.652 232.126 115.892 231.192H119.405C119.098 232.886 118.285 234.273 116.951 235.36C115.618 236.447 113.952 236.987 111.958 236.987C110.225 236.987 108.712 236.633 107.418 235.927C106.125 235.22 105.132 234.226 104.425 232.946C103.718 231.666 103.365 230.178 103.365 228.485C103.365 226.791 103.705 225.271 104.392 223.977V224.004ZM116.118 226.658C115.965 225.444 115.485 224.49 114.672 223.81C113.858 223.13 112.832 222.783 111.598 222.783C110.445 222.783 109.458 223.137 108.618 223.844C107.785 224.55 107.298 225.484 107.172 226.658H116.118Z" fill="#BB9BFF"/>
<path d="M124.905 231.305C124.971 232.172 125.378 232.886 126.125 233.439C126.871 233.993 127.845 234.266 129.038 234.266C130.098 234.266 130.965 234.066 131.625 233.666C132.285 233.266 132.618 232.726 132.618 232.052C132.618 231.485 132.465 231.065 132.165 230.785C131.858 230.505 131.451 230.305 130.945 230.185C130.431 230.065 129.651 229.938 128.585 229.812C127.131 229.638 125.931 229.405 124.991 229.112C124.045 228.818 123.291 228.351 122.711 227.711C122.138 227.071 121.851 226.211 121.851 225.124C121.851 224.104 122.138 223.197 122.711 222.403C123.285 221.61 124.078 220.996 125.085 220.563C126.091 220.129 127.238 219.909 128.518 219.909C130.625 219.909 132.331 220.376 133.645 221.31C134.958 222.243 135.665 223.557 135.778 225.244H132.365C132.278 224.484 131.898 223.864 131.225 223.37C130.551 222.883 129.705 222.637 128.685 222.637C127.665 222.637 126.838 222.83 126.211 223.223C125.585 223.617 125.265 224.144 125.265 224.817C125.265 225.317 125.425 225.691 125.738 225.937C126.051 226.184 126.451 226.357 126.925 226.458C127.398 226.558 128.171 226.671 129.231 226.798C130.665 226.951 131.865 227.184 132.845 227.498C133.818 227.811 134.605 228.311 135.185 228.991C135.771 229.672 136.065 230.605 136.065 231.772C136.065 232.812 135.758 233.733 135.151 234.52C134.545 235.313 133.711 235.92 132.645 236.34C131.578 236.76 130.391 236.973 129.065 236.973C126.831 236.973 125.025 236.467 123.645 235.46C122.265 234.453 121.558 233.059 121.511 231.279H124.898L124.905 231.305Z" fill="#BB9BFF"/>
</g>
<defs>
<clipPath id="clip0_1_1097">
<rect width="420" height="237" fill="white"/>
</clipPath>
</defs>
</svg>
