<?xml version="1.0" encoding="UTF-8"?><svg id="Layer_1" xmlns="http://www.w3.org/2000/svg" viewBox="0 0 870.25 453.64"><defs><style>.cls-1{fill:#F9F3EF;}</style></defs><path class="cls-1" d="M129.43,120.67c-37.43,0-64.99,16.04-82.67,40.31V38.82H13.04V341.13H46.76v-70.33l16.04,54.7c11.11,9.46,33.73,21.8,66.63,21.8,65.81,0,108.59-50.18,108.59-113.11s-42.36-113.52-108.59-113.52Zm-4.52,195.78c-48.95,0-79.38-36.61-79.38-82.26s30.44-82.67,79.38-82.67,78.56,37.02,78.56,82.67-28.79,82.26-78.56,82.26Z"/><path class="cls-1" d="M857.22,158.1v-30.85h-71.49c-11.11-41.15-39.48-70.33-77.35-91.15-35.56-19.54-74.19-25.18-114.24-22.29-49.69,3.58-93.49,21.31-129.04,56.69-20.64,20.54-37.03,42.68-49.34,66.27-.17-.11-.33-.23-.49-.34-15.82-10.15-35.46-15.77-58.38-15.77-60.46,0-104.88,48.94-104.88,113.52s43.6,113.11,108.17,113.11c14.99,0,30.17-2.41,44.24-7.52,13.25,27.02,34.32,49.38,62.17,66.95,26.52,16.73,56.3,24.89,87.01,29.51,14.2,2.14,28.61,2.88,43.33,4.29v-34.18c-3.76,0-6.85,.11-9.93-.02-26.19-1.03-51.89-4.83-76.2-15.06-33.32-14.02-61.15-36.51-76.62-68.12,9.07-7.38,16.84-16.56,22.66-27.69l-25.91-21.8c-2.29,5.31-4.93,10.12-7.9,14.43-7.51,10.9-17.22,18.65-29.12,23.41-9.66,3.86-20.76,5.76-33.31,5.76-39.07,0-69.51-24.27-73.62-71.98h172.34c.41-4.94,.82-10.28,.82-14.81,0-25.83-6.06-48.37-17.34-66.21,12.45-28.39,29.97-53.71,53.04-75.39,28.33-26.63,62.85-39.93,101.31-43.09,44.12-3.62,84.81,5.57,120,33.75,16.52,13.23,29.13,28.91,36.52,47.71h-29.29v30.85h36.4c2.7,26.59-1.12,52.63-8.95,78.21-7.13,23.28-17.46,44.97-34.44,62.84-8.82,9.28-18.31,17.82-31.79,19.82-7.95,1.18-11.87-.57-14.25-8.24-1.92-6.17-3.23-12.78-3.34-19.23-.59-34.24,6.6-67.49,14.6-100.46,5.2-21.44,12.32-42.42,18.78-64.26-8.36-4.38-17.69-9.28-27.4-14.36-10.2,15.08-20.27,29.97-29.67,43.87-11.61-7.27-21.79-15.2-33.2-20.48-24.37-11.28-49.57-13.41-73.98,.07-20.51,11.32-33,29.87-41.72,50.99-13.45,32.57-16.89,66.75-14.72,101.59,.77,12.37,3.69,24.4,10.28,35.22,13.05,21.43,35.61,26.01,54.9,10.33,9.38-7.62,18.78-15.82,26.01-25.39,24.41-32.3,47.85-65.34,71.66-98.09,1.31-1.8,2.6-3.61,4.8-6.65-.16,2.76-.11,3.89-.31,4.97-2.81,15.15-6.13,30.23-8.38,45.47-2.99,20.27-4.41,40.64-.63,61.06,5.57,30.11,27.65,42.98,56.43,32.27,20.93-7.79,38.09-21.23,52.14-38.29,5.27-6.39,10.02-12.92,14.31-19.57,1.55,41.37,24.41,56.7,64.9,56.7,6.17,0,19.74-1.23,25.91-3.7v-30.03c-5.76,1.23-15.22,2.47-20.57,2.47-23.44,0-36.61-3.7-36.61-34.14v-122.98h61.7Zm-467.34,60.05h-102.51c5.76-44.01,34.96-67.45,69.51-67.45,18.41,0,34.01,5.44,45.48,15.41,13.39,11.64,21.15,29.45,21.15,52.04h-33.63Zm187.83,32.29c-11.19,14.98-23.22,29.35-35.09,43.8-3.04,3.7-6.71,6.95-10.44,9.98-5.49,4.46-10.17,3.82-13.05-2.71-2.67-6.06-4.3-12.77-5.24-19.35-3.48-24.45,1.96-48.07,8.74-71.21,3.31-11.3,8.17-22.64,14.66-32.42,12.94-19.49,32.61-24.59,54.32-15.95,12.35,4.91,22.88,12.63,33.36,22.31-15.89,22.1-31.24,44.08-47.27,65.55Z"/></svg>