<svg xmlns="http://www.w3.org/2000/svg" version="1.1" xmlns:xlink="http://www.w3.org/1999/xlink" width="512" height="512" x="0" y="0" viewBox="0 0 512 512" style="enable-background:new 0 0 512 512" xml:space="preserve" class=""><g><path fill-rule="evenodd" d="M348.085 375.93a7.875 7.875 0 1 1-7.875 7.875 7.874 7.874 0 0 1 7.875-7.875zm-131.25 0a7.875 7.875 0 1 1-7.875 7.875 7.874 7.874 0 0 1 7.875-7.875zm-22.208-83.843 7.875 75.284h-2.887a10.5 10.5 0 0 0-10.5 9.03l-9.293 67.095h-45.727V323.588a273.302 273.302 0 0 1 60.532-31.5zm175.245-.212a210.077 210.077 0 0 1 63.578 34.02 43.847 43.847 0 0 1 16.8 33.601v84h-65.572l-9.188-67.094a10.5 10.5 0 0 0-10.5-9.03h-2.888l7.77-75.496zm-87.622-16.378a236.213 236.213 0 0 1 62.003 8.452l-8.558 83.423h-106.89l-8.557-83.265a251.977 251.977 0 0 1 62.002-8.61zM69.625 190.342a7.876 7.876 0 0 1 7.875 7.875v66.78a14.44 14.44 0 0 0 13.072 14.437v-81.217a7.875 7.875 0 1 1 15.75 0v81.375h14.018v-81.375a7.875 7.875 0 1 1 15.75 0v81.217h.472A14.437 14.437 0 0 0 151 264.997v-66.78a7.875 7.875 0 1 1 15.75 0v66.831a30.238 30.238 0 0 1-30.188 30.294h-12.967v177.713h-21.157v-177.87h-10.5a30.242 30.242 0 0 1-30.188-30.188v-66.78a7.876 7.876 0 0 1 7.875-7.875zm210.997-32.604a687.096 687.096 0 0 1 85.208 4.62 53.875 53.875 0 0 1 .42 8.139 84 84 0 0 1-168 0 58.749 58.749 0 0 1 .42-8.61 723.653 723.653 0 0 1 81.952-4.15zM242.665 33.997c22.312 0 26.774 5.776 40.162 5.776s17.85-5.776 40.162-5.776c21.158 0 31.186 46.095 34.44 72.03 54.39 16.327 72.818 30.081 72.66 41.21 0 23.26-11.497-5.25-149.624-5.25-140.123 0-149.626 28.51-149.626 5.25 0-11.18 18.796-25.095 73.5-41.422 4.463-25.987 17.326-71.819 38.326-71.819z" fill="#6d7351" opacity="1" data-original="#000000" class=""></path></g></svg>