<svg id="Favorito" xmlns="http://www.w3.org/2000/svg" width="58.651" height="50.726" viewBox="0 0 58.651 50.726">
  <path id="heart_2_" data-name="heart (2)" d="M29.326,85.32a1.716,1.716,0,0,1-.859-.23,102.61,102.61,0,0,1-14.1-10.149A58.179,58.179,0,0,1,4.581,64.458C1.517,60.058-.024,55.826,0,51.88A18.159,18.159,0,0,1,4.633,39.718a15.183,15.183,0,0,1,11.3-5.124,15.685,15.685,0,0,1,13.39,7.942,15.685,15.685,0,0,1,13.39-7.942,15.27,15.27,0,0,1,10.866,4.624A17.9,17.9,0,0,1,58.651,51.9c-.025,3.94-1.595,8.165-4.666,12.559a58.931,58.931,0,0,1-9.769,10.479A102.964,102.964,0,0,1,30.19,85.087a1.719,1.719,0,0,1-.864.233Z" transform="translate(0 -34.594)" fill="#de2c2c"/>
</svg>
